<?xml version="1.0" standalone="no"?>
<!DOCTYPE svg PUBLIC "-//W3C//DTD SVG 20010904//EN"
 "http://www.w3.org/TR/2001/REC-SVG-20010904/DTD/svg10.dtd">
<svg version="1.0" xmlns="http://www.w3.org/2000/svg"
 width="700.000000pt" height="700.000000pt" viewBox="0 0 700.000000 700.000000"
 preserveAspectRatio="xMidYMid meet">
<metadata>
Created by potrace 1.11, written by Peter Selinger 2001-2013
</metadata>
<g transform="translate(0.000000,700.000000) scale(0.100000,-0.100000)"
fill="#000000" stroke="none">
<path d="M3027 6959 c-8 -19 -125 -275 -260 -571 l-246 -536 644 -1414 644
-1413 -1303 -3 -1303 -2 -10 -23 c-21 -44 -415 -902 -420 -914 -4 -10 347 -13
1734 -13 l1738 0 464 -1027 c255 -566 467 -1031 471 -1036 3 -4 241 -6 528 -5
l521 3 -695 1530 c-1407 3096 -2476 5440 -2484 5449 -5 5 -15 -6 -23 -25z"/>
</g>
</svg>
